<svg width="153" height="12" viewBox="0 0 153 12" fill="none" xmlns="http://www.w3.org/2000/svg">
<path d="M0.666667 6C0.666667 8.94552 3.05448 11.3333 6 11.3333C8.94552 11.3333 11.3333 8.94552 11.3333 6C11.3333 3.05448 8.94552 0.666667 6 0.666667C3.05448 0.666667 0.666667 3.05448 0.666667 6ZM153 6L143 0.226497V11.7735L153 6ZM6 7C6.09066 7 6.18139 7 6.27221 7C6.36303 7 6.45392 7 6.5449 7C6.63587 7 6.72693 7 6.81806 7C6.9092 7 7.00041 7 7.0917 7C7.18299 7 7.27436 7 7.36581 7C7.45726 7 7.54878 7 7.64038 7C7.73199 7 7.82367 7 7.91542 7C8.00718 7 8.09901 7 8.19092 7C8.28284 7 8.37482 7 8.46688 7C8.55895 7 8.65109 7 8.7433 7C8.83551 7 8.9278 7 9.02017 7C9.11253 7 9.20497 7 9.29749 7C9.39 7 9.48259 7 9.57525 7C9.66791 7 9.76065 7 9.85346 7C9.94627 7 10.0392 7 10.1321 7C10.2251 7 10.3181 7 10.4112 7C10.5043 7 10.5975 7 10.6907 7C10.784 7 10.8773 7 10.9707 7C11.0641 7 11.1575 7 11.2511 7C11.3446 7 11.4382 7 11.5319 7C11.6256 7 11.7193 7 11.8131 7C11.9069 7 12.0008 7 12.0948 7C12.1887 7 12.2828 7 12.3769 7C12.471 7 12.5651 7 12.6593 7C12.7536 7 12.8479 7 12.9423 7C13.0366 7 13.1311 7 13.2256 7C13.3201 7 13.4146 7 13.5093 7C13.6039 7 13.6986 7 13.7934 7C13.8882 7 13.983 7 14.0779 7C14.1729 7 14.2678 7 14.3629 7C14.4579 7 14.553 7 14.6482 7C14.7434 7 14.8386 7 14.9339 7C15.0292 7 15.1246 7 15.22 7C15.3154 7 15.4109 7 15.5065 7C15.6021 7 15.6977 7 15.7934 7C15.8891 7 15.9848 7 16.0806 7C16.1764 7 16.2723 7 16.3682 7C16.4642 7 16.5602 7 16.6563 7C16.7523 7 16.8484 7 16.9446 7C17.0408 7 17.1371 7 17.2334 7C17.3297 7 17.4261 7 17.5225 7C17.6189 7 17.7154 7 17.812 7C17.9085 7 18.0051 7 18.1018 7C18.1985 7 18.2952 7 18.392 7C18.4888 7 18.5857 7 18.6826 7C18.7795 7 18.8764 7 18.9735 7C19.0705 7 19.1676 7 19.2647 7C19.3619 7 19.4591 7 19.5563 7C19.6536 7 19.7509 7 19.8483 7C19.9456 7 20.0431 7 20.1405 7C20.238 7 20.3356 7 20.4332 7C20.5308 7 20.6284 7 20.7261 7C20.8238 7 20.9216 7 21.0194 7C21.1172 7 21.2151 7 21.313 7C21.411 7 21.5089 7 21.607 7C21.705 7 21.8031 7 21.9012 7C21.9994 7 22.0976 7 22.1958 7C22.2941 7 22.3924 7 22.4907 7C22.5891 7 22.6875 7 22.7859 7C22.8844 7 22.9829 7 23.0815 7C23.18 7 23.2787 7 23.3773 7C23.476 7 23.5747 7 23.6735 7C23.7722 7 23.871 7 23.9699 7C24.0688 7 24.1677 7 24.2667 7C24.3656 7 24.4646 7 24.5637 7C24.6628 7 24.7619 7 24.8611 7C24.9602 7 25.0594 7 25.1587 7C25.2579 7 25.3573 7 25.4566 7C25.556 7 25.6554 7 25.7548 7C25.8543 7 25.9538 7 26.0533 7C26.1529 7 26.2524 7 26.3521 7C26.4517 7 26.5514 7 26.6511 7C26.7509 7 26.8506 7 26.9504 7C27.0503 7 27.1501 7 27.25 7C27.35 7 27.4499 7 27.5499 7C27.6499 7 27.75 7 27.85 7C27.9501 7 28.0503 7 28.1504 7C28.2506 7 28.3508 7 28.4511 7C28.5513 7 28.6516 7 28.752 7C28.8523 7 28.9527 7 29.0532 7C29.1536 7 29.2541 7 29.3546 7C29.4551 7 29.5556 7 29.6562 7C29.7568 7 29.8575 7 29.9581 7C30.0588 7 30.1595 7 30.2603 7C30.361 7 30.4618 7 30.5627 7C30.6635 7 30.7644 7 30.8653 7C30.9662 7 31.0672 7 31.1682 7C31.2692 7 31.3702 7 31.4713 7C31.5723 7 31.6734 7 31.7746 7C31.8757 7 31.9769 7 32.0781 7C32.1794 7 32.2806 7 32.3819 7C32.4832 7 32.5845 7 32.6859 7C32.7873 7 32.8887 7 32.9901 7C33.0915 7 33.193 7 33.2945 7C33.396 7 33.4976 7 33.5992 7C33.7007 7 33.8024 7 33.904 7C34.0056 7 34.1073 7 34.209 7C34.3108 7 34.4125 7 34.5143 7C34.6161 7 34.7179 7 34.8197 7C34.9216 7 35.0235 7 35.1254 7C35.2273 7 35.3292 7 35.4312 7C35.5332 7 35.6352 7 35.7373 7C35.8393 7 35.9414 7 36.0435 7C36.1456 7 36.2477 7 36.3499 7C36.452 7 36.5542 7 36.6565 7C36.7587 7 36.8609 7 36.9632 7C37.0655 7 37.1678 7 37.2702 7C37.3725 7 37.4749 7 37.5773 7C37.6797 7 37.7821 7 37.8846 7C37.987 7 38.0895 7 38.192 7C38.2945 7 38.3971 7 38.4996 7C38.6022 7 38.7048 7 38.8074 7C38.91 7 39.0127 7 39.1154 7C39.218 7 39.3207 7 39.4235 7C39.5262 7 39.6289 7 39.7317 7C39.8345 7 39.9373 7 40.0401 7C40.1429 7 40.2458 7 40.3487 7C40.4515 7 40.5544 7 40.6573 7C40.7603 7 40.8632 7 40.9662 7C41.0691 7 41.1721 7 41.2752 7C41.3782 7 41.4812 7 41.5843 7C41.6873 7 41.7904 7 41.8935 7C41.9966 7 42.0997 7 42.2029 7C42.306 7 42.4092 7 42.5124 7C42.6156 7 42.7188 7 42.822 7C42.9252 7 43.0285 7 43.1318 7C43.235 7 43.3383 7 43.4416 7C43.5449 7 43.6483 7 43.7516 7C43.855 7 43.9583 7 44.0617 7C44.1651 7 44.2685 7 44.3719 7C44.4753 7 44.5788 7 44.6822 7C44.7857 7 44.8892 7 44.9927 7C45.0961 7 45.1997 7 45.3032 7C45.4067 7 45.5102 7 45.6138 7C45.7174 7 45.8209 7 45.9245 7C46.0281 7 46.1317 7 46.2353 7C46.3389 7 46.4426 7 46.5462 7C46.6499 7 46.7535 7 46.8572 7C46.9609 7 47.0646 7 47.1683 7C47.272 7 47.3757 7 47.4794 7C47.5832 7 47.6869 7 47.7907 7C47.8944 7 47.9982 7 48.102 7C48.2058 7 48.3096 7 48.4134 7C48.5172 7 48.621 7 48.7248 7C48.8286 7 48.9325 7 49.0363 7C49.1402 7 49.244 7 49.3479 7C49.4518 7 49.5557 7 49.6596 7C49.7635 7 49.8674 7 49.9713 7C50.0752 7 50.1791 7 50.283 7C50.3869 7 50.4909 7 50.5948 7C50.6988 7 50.8027 7 50.9067 7C51.0107 7 51.1146 7 51.2186 7C51.3226 7 51.4266 7 51.5306 7C51.6345 7 51.7385 7 51.8425 7C51.9466 7 52.0506 7 52.1546 7C52.2586 7 52.3626 7 52.4666 7C52.5707 7 52.6747 7 52.7787 7C52.8828 7 52.9868 7 53.0909 7C53.1949 7 53.299 7 53.403 7C53.5071 7 53.6112 7 53.7152 7C53.8193 7 53.9234 7 54.0274 7C54.1315 7 54.2356 7 54.3396 7C54.4437 7 54.5478 7 54.6519 7C54.756 7 54.86 7 54.9641 7C55.0682 7 55.1723 7 55.2764 7C55.3805 7 55.4846 7 55.5887 7C55.6927 7 55.7968 7 55.9009 7C56.005 7 56.1091 7 56.2132 7C56.3173 7 56.4214 7 56.5255 7C56.6296 7 56.7336 7 56.8377 7C56.9418 7 57.0459 7 57.15 7C57.2541 7 57.3581 7 57.4622 7C57.5663 7 57.6704 7 57.7745 7C57.8785 7 57.9826 7 58.0867 7C58.1907 7 58.2948 7 58.3989 7C58.5029 7 58.607 7 58.7111 7C58.8151 7 58.9192 7 59.0232 7C59.1272 7 59.2313 7 59.3353 7C59.4394 7 59.5434 7 59.6474 7C59.7514 7 59.8555 7 59.9595 7C60.0635 7 60.1675 7 60.2715 7C60.3755 7 60.4795 7 60.5835 7C60.6875 7 60.7914 7 60.8954 7C60.9994 7 61.1034 7 61.2073 7C61.3113 7 61.4152 7 61.5192 7C61.6231 7 61.727 7 61.831 7C61.9349 7 62.0388 7 62.1427 7C62.2466 7 62.3505 7 62.4544 7C62.5583 7 62.6622 7 62.766 7C62.8699 7 62.9737 7 63.0776 7C63.1814 7 63.2853 7 63.3891 7C63.4929 7 63.5967 7 63.7005 7C63.8043 7 63.9081 7 64.0119 7C64.1157 7 64.2194 7 64.3232 7C64.4269 7 64.5307 7 64.6344 7C64.7381 7 64.8418 7 64.9455 7C65.0492 7 65.1529 7 65.2566 7C65.3602 7 65.4639 7 65.5675 7C65.6712 7 65.7748 7 65.8784 7C65.982 7 66.0856 7 66.1892 7C66.2928 7 66.3963 7 66.4999 7C66.6034 7 66.707 7 66.8105 7C66.914 7 67.0175 7 67.121 7C67.2244 7 67.3279 7 67.4314 7C67.5348 7 67.6382 7 67.7416 7C67.8451 7 67.9484 7 68.0518 7C68.1552 7 68.2585 7 68.3619 7C68.4652 7 68.5685 7 68.6718 7C68.7751 7 68.8784 7 68.9817 7C69.0849 7 69.1882 7 69.2914 7C69.3946 7 69.4978 7 69.601 7C69.7042 7 69.8073 7 69.9104 7C70.0136 7 70.1167 7 70.2198 7C70.3229 7 70.4259 7 70.529 7C70.632 7 70.7351 7 70.8381 7C70.9411 7 71.0441 7 71.147 7C71.25 7 71.3529 7 71.4558 7C71.5587 7 71.6616 7 71.7645 7C71.8673 7 71.9702 7 72.073 7C72.1758 7 72.2786 7 72.3813 7C72.4841 7 72.5868 7 72.6895 7C72.7922 7 72.8949 7 72.9976 7C73.1003 7 73.2029 7 73.3055 7C73.4081 7 73.5107 7 73.6132 7C73.7158 7 73.8183 7 73.9208 7C74.0233 7 74.1258 7 74.2282 7C74.3306 7 74.4331 7 74.5354 7C74.6378 7 74.7402 7 74.8425 7C74.9448 7 75.0471 7 75.1494 7C75.2517 7 75.3539 7 75.4561 7C75.5583 7 75.6605 7 75.7626 7C75.8648 7 75.9669 7 76.069 7C76.1711 7 76.2731 7 76.3752 7C76.4772 7 76.5792 7 76.6811 7C76.7831 7 76.885 7 76.9869 7C77.0888 7 77.1907 7 77.2925 7C77.3944 7 77.4962 7 77.5979 7C77.6997 7 77.8014 7 77.9031 7C78.0048 7 78.1065 7 78.2081 7C78.3097 7 78.4113 7 78.5129 7C78.6144 7 78.716 7 78.8175 7C78.9189 7 79.0204 7 79.1218 7C79.2232 7 79.3246 7 79.426 7C79.5273 7 79.6286 7 79.7299 7C79.8312 7 79.9324 7 80.0336 7C80.1348 7 80.236 7 80.3371 7C80.4382 7 80.5393 7 80.6404 7C80.7414 7 80.8424 7 80.9434 7C81.0444 7 81.1453 7 81.2462 7C81.3471 7 81.4479 7 81.5488 7C81.6496 7 81.7503 7 81.8511 7C81.9518 7 82.0525 7 82.1532 7C82.2538 7 82.3544 7 82.455 7C82.5556 7 82.6561 7 82.7566 7C82.8571 7 82.9575 7 83.0579 7C83.1583 7 83.2587 7 83.359 7C83.4594 7 83.5596 7 83.6599 7C83.7601 7 83.8603 7 83.9605 7C84.0606 7 84.1607 7 84.2608 7C84.3608 7 84.4609 7 84.5608 7C84.6608 7 84.7607 7 84.8606 7C84.9605 7 85.0603 7 85.1601 7C85.2599 7 85.3597 7 85.4594 7C85.5591 7 85.6588 7 85.7584 7C85.858 7 85.9575 7 86.0571 7C86.1566 7 86.2561 7 86.3555 7C86.4549 7 86.5543 7 86.6536 7C86.7529 7 86.8522 7 86.9514 7C87.0507 7 87.1499 7 87.249 7C87.3481 7 87.4472 7 87.5463 7C87.6453 7 87.7443 7 87.8432 7C87.9422 7 88.0411 7 88.1399 7C88.2387 7 88.3375 7 88.4363 7C88.535 7 88.6337 7 88.7323 7C88.831 7 88.9295 7 89.0281 7C89.1266 7 89.2251 7 89.3235 7C89.422 7 89.5203 7 89.6187 7C89.717 7 89.8153 7 89.9135 7C90.0117 7 90.1099 7 90.208 7C90.3061 7 90.4042 7 90.5022 7C90.6002 7 90.6981 7 90.796 7C90.8939 7 90.9918 7 91.0895 7C91.1873 7 91.2851 7 91.3827 7C91.4804 7 91.578 7 91.6756 7C91.7732 7 91.8707 7 91.9681 7C92.0656 7 92.163 7 92.2603 7C92.3577 7 92.4549 7 92.5522 7C92.6494 7 92.7466 7 92.8437 7C92.9408 7 93.0378 7 93.1348 7C93.2318 7 93.3288 7 93.4256 7C93.5225 7 93.6193 7 93.7161 7C93.8129 7 93.9096 7 94.0062 7C94.1028 7 94.1994 7 94.2959 7C94.3924 7 94.4889 7 94.5853 7C94.6817 7 94.778 7 94.8743 7C94.9706 7 95.0668 7 95.163 7C95.2591 7 95.3552 7 95.4512 7C95.5473 7 95.6432 7 95.7392 7C95.8351 7 95.9309 7 96.0267 7C96.1225 7 96.2182 7 96.3138 7C96.4095 7 96.5051 7 96.6006 7C96.6961 7 96.7916 7 96.887 7C96.9824 7 97.0777 7 97.173 7C97.2682 7 97.3634 7 97.4586 7C97.5537 7 97.6488 7 97.7438 7C97.8388 7 97.9337 7 98.0286 7C98.1235 7 98.2183 7 98.313 7C98.4078 7 98.5024 7 98.597 7C98.6916 7 98.7862 7 98.8807 7C98.9751 7 99.0695 7 99.1639 7C99.2582 7 99.3524 7 99.4466 7C99.5408 7 99.635 7 99.729 7C99.8231 7 99.9171 7 100.011 7C100.105 7 100.199 7 100.293 7C100.386 7 100.48 7 100.574 7C100.667 7 100.761 7 100.854 7C100.948 7 101.041 7 101.135 7C101.228 7 101.321 7 101.414 7C101.508 7 101.601 7 101.694 7C101.787 7 101.88 7 101.973 7C102.066 7 102.159 7 102.251 7C102.344 7 102.437 7 102.529 7C102.622 7 102.715 7 102.807 7C102.9 7 102.992 7 103.084 7C103.177 7 103.269 7 103.361 7C103.453 7 103.545 7 103.637 7C103.729 7 103.821 7 103.913 7C104.005 7 104.097 7 104.189 7C104.28 7 104.372 7 104.463 7C104.555 7 104.646 7 104.738 7C104.829 7 104.921 7 105.012 7C105.103 7 105.194 7 105.285 7C105.376 7 105.467 7 105.558 7C105.649 7 105.74 7 105.831 7C105.922 7 106.012 7 106.103 7C106.194 7 106.284 7 106.375 7C106.465 7 106.555 7 106.646 7C106.736 7 106.826 7 106.916 7C107.007 7 107.097 7 107.187 7C107.276 7 107.366 7 107.456 7C107.546 7 107.636 7 107.725 7C107.815 7 107.904 7 107.994 7C108.083 7 108.173 7 108.262 7C108.351 7 108.441 7 108.53 7C108.619 7 108.708 7 108.797 7C108.886 7 108.975 7 109.063 7C109.152 7 109.241 7 109.33 7C109.418 7 109.507 7 109.595 7C109.684 7 109.772 7 109.86 7C109.948 7 110.037 7 110.125 7C110.213 7 110.301 7 110.389 7C110.477 7 110.564 7 110.652 7C110.74 7 110.828 7 110.915 7C111.003 7 111.09 7 111.178 7C111.265 7 111.352 7 111.439 7C111.527 7 111.614 7 111.701 7C111.788 7 111.875 7 111.962 7C112.048 7 112.135 7 112.222 7C112.309 7 112.395 7 112.482 7C112.568 7 112.654 7 112.741 7C112.827 7 112.913 7 112.999 7C113.085 7 113.171 7 113.257 7C113.343 7 113.429 7 113.515 7C113.601 7 113.686 7 113.772 7C113.857 7 113.943 7 114.028 7C114.114 7 114.199 7 114.284 7C114.369 7 114.454 7 114.539 7C114.624 7 114.709 7 114.794 7C114.879 7 114.963 7 115.048 7C115.132 7 115.217 7 115.301 7C115.386 7 115.47 7 115.554 7C115.638 7 115.723 7 115.807 7C115.891 7 115.974 7 116.058 7C116.142 7 116.226 7 116.309 7C116.393 7 116.477 7 116.56 7C116.643 7 116.727 7 116.81 7C116.893 7 116.976 7 117.059 7C117.142 7 117.225 7 117.308 7C117.391 7 117.473 7 117.556 7C117.639 7 117.721 7 117.804 7C117.886 7 117.968 7 118.051 7C118.133 7 118.215 7 118.297 7C118.379 7 118.461 7 118.543 7C118.624 7 118.706 7 118.788 7C118.869 7 118.951 7 119.032 7C119.113 7 119.195 7 119.276 7C119.357 7 119.438 7 119.519 7C119.6 7 119.681 7 119.762 7C119.842 7 119.923 7 120.003 7C120.084 7 120.164 7 120.245 7C120.325 7 120.405 7 120.485 7C120.565 7 120.645 7 120.725 7C120.805 7 120.885 7 120.965 7C121.044 7 121.124 7 121.203 7C121.283 7 121.362 7 121.441 7C121.521 7 121.6 7 121.679 7C121.758 7 121.837 7 121.916 7C121.994 7 122.073 7 122.152 7C122.23 7 122.309 7 122.387 7C122.465 7 122.544 7 122.622 7C122.7 7 122.778 7 122.856 7C122.934 7 123.012 7 123.089 7C123.167 7 123.244 7 123.322 7C123.399 7 123.477 7 123.554 7C123.631 7 123.708 7 123.785 7C123.862 7 123.939 7 124.016 7C124.093 7 124.169 7 124.246 7C124.323 7 124.399 7 124.475 7C124.552 7 124.628 7 124.704 7C124.78 7 124.856 7 124.932 7C125.008 7 125.083 7 125.159 7C125.235 7 125.31 7 125.386 7C125.461 7 125.536 7 125.611 7C125.687 7 125.762 7 125.836 7C125.911 7 125.986 7 126.061 7C126.136 7 126.21 7 126.285 7C126.359 7 126.433 7 126.508 7C126.582 7 126.656 7 126.73 7C126.804 7 126.878 7 126.951 7C127.025 7 127.099 7 127.172 7C127.246 7 127.319 7 127.392 7C127.465 7 127.539 7 127.612 7C127.685 7 127.757 7 127.83 7C127.903 7 127.976 7 128.048 7C128.121 7 128.193 7 128.265 7C128.337 7 128.41 7 128.482 7C128.554 7 128.625 7 128.697 7C128.769 7 128.841 7 128.912 7C128.984 7 129.055 7 129.126 7C129.198 7 129.269 7 129.34 7C129.411 7 129.482 7 129.552 7C129.623 7 129.694 7 129.764 7C129.835 7 129.905 7 129.975 7C130.046 7 130.116 7 130.186 7C130.256 7 130.326 7 130.395 7C130.465 7 130.535 7 130.604 7C130.674 7 130.743 7 130.812 7C130.881 7 130.95 7 131.019 7C131.088 7 131.157 7 131.226 7C131.295 7 131.363 7 131.432 7C131.5 7 131.568 7 131.637 7C131.705 7 131.773 7 131.841 7C131.909 7 131.976 7 132.044 7C132.112 7 132.179 7 132.247 7C132.314 7 132.381 7 132.448 7C132.516 7 132.583 7 132.649 7C132.716 7 132.783 7 132.85 7C132.916 7 132.983 7 133.049 7C133.115 7 133.181 7 133.247 7C133.314 7 133.379 7 133.445 7C133.511 7 133.577 7 133.642 7C133.708 7 133.773 7 133.838 7C133.903 7 133.969 7 134.034 7C134.098 7 134.163 7 134.228 7C134.293 7 134.357 7 134.422 7C134.486 7 134.55 7 134.614 7C134.679 7 134.743 7 134.806 7C134.87 7 134.934 7 134.998 7C135.061 7 135.125 7 135.188 7C135.251 7 135.314 7 135.377 7C135.44 7 135.503 7 135.566 7C135.629 7 135.691 7 135.754 7C135.816 7 135.879 7 135.941 7C136.003 7 136.065 7 136.127 7C136.189 7 136.251 7 136.312 7C136.374 7 136.435 7 136.497 7C136.558 7 136.619 7 136.68 7C136.741 7 136.802 7 136.863 7C136.923 7 136.984 7 137.044 7C137.105 7 137.165 7 137.225 7C137.286 7 137.346 7 137.405 7C137.465 7 137.525 7 137.585 7C137.644 7 137.704 7 137.763 7C137.822 7 137.881 7 137.94 7C137.999 7 138.058 7 138.117 7C138.176 7 138.234 7 138.293 7C138.351 7 138.409 7 138.467 7C138.525 7 138.583 7 138.641 7C138.699 7 138.757 7 138.814 7C138.872 7 138.929 7 138.986 7C139.044 7 139.101 7 139.158 7C139.214 7 139.271 7 139.328 7C139.384 7 139.441 7 139.497 7C139.553 7 139.61 7 139.666 7C139.722 7 139.778 7 139.833 7C139.889 7 139.944 7 140 7C140.055 7 140.111 7 140.166 7C140.221 7 140.276 7 140.33 7C140.385 7 140.44 7 140.494 7C140.549 7 140.603 7 140.657 7C140.711 7 140.765 7 140.819 7C140.873 7 140.927 7 140.98 7C141.034 7 141.087 7 141.141 7C141.194 7 141.247 7 141.3 7C141.353 7 141.406 7 141.458 7C141.511 7 141.563 7 141.615 7C141.668 7 141.72 7 141.772 7C141.824 7 141.876 7 141.927 7C141.979 7 142.03 7 142.082 7C142.133 7 142.184 7 142.235 7C142.286 7 142.337 7 142.388 7C142.439 7 142.489 7 142.54 7C142.59 7 142.64 7 142.69 7C142.74 7 142.79 7 142.84 7C142.89 7 142.939 7 142.989 7C143.038 7 143.087 7 143.136 7C143.186 7 143.235 7 143.283 7C143.332 7 143.381 7 143.429 7C143.478 7 143.526 7 143.574 7C143.622 7 143.67 7 143.718 7C143.766 7 143.813 7 143.861 7C143.908 7 143.955 7 144.003 7V5C143.955 5 143.908 5 143.861 5C143.813 5 143.766 5 143.718 5C143.67 5 143.622 5 143.574 5C143.526 5 143.478 5 143.429 5C143.381 5 143.332 5 143.283 5C143.235 5 143.186 5 143.136 5C143.087 5 143.038 5 142.989 5C142.939 5 142.89 5 142.84 5C142.79 5 142.74 5 142.69 5C142.64 5 142.59 5 142.54 5C142.489 5 142.439 5 142.388 5C142.337 5 142.286 5 142.235 5C142.184 5 142.133 5 142.082 5C142.03 5 141.979 5 141.927 5C141.876 5 141.824 5 141.772 5C141.72 5 141.668 5 141.615 5C141.563 5 141.511 5 141.458 5C141.406 5 141.353 5 141.3 5C141.247 5 141.194 5 141.141 5C141.087 5 141.034 5 140.98 5C140.927 5 140.873 5 140.819 5C140.765 5 140.711 5 140.657 5C140.603 5 140.549 5 140.494 5C140.44 5 140.385 5 140.33 5C140.276 5 140.221 5 140.166 5C140.111 5 140.055 5 140 5C139.944 5 139.889 5 139.833 5C139.778 5 139.722 5 139.666 5C139.61 5 139.553 5 139.497 5C139.441 5 139.384 5 139.328 5C139.271 5 139.214 5 139.158 5C139.101 5 139.044 5 138.986 5C138.929 5 138.872 5 138.814 5C138.757 5 138.699 5 138.641 5C138.583 5 138.525 5 138.467 5C138.409 5 138.351 5 138.293 5C138.234 5 138.176 5 138.117 5C138.058 5 137.999 5 137.94 5C137.881 5 137.822 5 137.763 5C137.704 5 137.644 5 137.585 5C137.525 5 137.465 5 137.405 5C137.346 5 137.286 5 137.225 5C137.165 5 137.105 5 137.044 5C136.984 5 136.923 5 136.863 5C136.802 5 136.741 5 136.68 5C136.619 5 136.558 5 136.497 5C136.435 5 136.374 5 136.312 5C136.251 5 136.189 5 136.127 5C136.065 5 136.003 5 135.941 5C135.879 5 135.816 5 135.754 5C135.691 5 135.629 5 135.566 5C135.503 5 135.44 5 135.377 5C135.314 5 135.251 5 135.188 5C135.125 5 135.061 5 134.998 5C134.934 5 134.87 5 134.806 5C134.743 5 134.679 5 134.614 5C134.55 5 134.486 5 134.422 5C134.357 5 134.293 5 134.228 5C134.163 5 134.098 5 134.034 5C133.969 5 133.903 5 133.838 5C133.773 5 133.708 5 133.642 5C133.577 5 133.511 5 133.445 5C133.379 5 133.314 5 133.247 5C133.181 5 133.115 5 133.049 5C132.983 5 132.916 5 132.85 5C132.783 5 132.716 5 132.649 5C132.583 5 132.516 5 132.448 5C132.381 5 132.314 5 132.247 5C132.179 5 132.112 5 132.044 5C131.976 5 131.909 5 131.841 5C131.773 5 131.705 5 131.637 5C131.568 5 131.5 5 131.432 5C131.363 5 131.295 5 131.226 5C131.157 5 131.088 5 131.019 5C130.95 5 130.881 5 130.812 5C130.743 5 130.674 5 130.604 5C130.535 5 130.465 5 130.395 5C130.326 5 130.256 5 130.186 5C130.116 5 130.046 5 129.975 5C129.905 5 129.835 5 129.764 5C129.694 5 129.623 5 129.552 5C129.482 5 129.411 5 129.34 5C129.269 5 129.198 5 129.126 5C129.055 5 128.984 5 128.912 5C128.841 5 128.769 5 128.697 5C128.625 5 128.554 5 128.482 5C128.41 5 128.337 5 128.265 5C128.193 5 128.121 5 128.048 5C127.976 5 127.903 5 127.83 5C127.757 5 127.685 5 127.612 5C127.539 5 127.465 5 127.392 5C127.319 5 127.246 5 127.172 5C127.099 5 127.025 5 126.951 5C126.878 5 126.804 5 126.73 5C126.656 5 126.582 5 126.508 5C126.433 5 126.359 5 126.285 5C126.21 5 126.136 5 126.061 5C125.986 5 125.911 5 125.836 5C125.762 5 125.687 5 125.611 5C125.536 5 125.461 5 125.386 5C125.31 5 125.235 5 125.159 5C125.083 5 125.008 5 124.932 5C124.856 5 124.78 5 124.704 5C124.628 5 124.552 5 124.475 5C124.399 5 124.323 5 124.246 5C124.169 5 124.093 5 124.016 5C123.939 5 123.862 5 123.785 5C123.708 5 123.631 5 123.554 5C123.477 5 123.399 5 123.322 5C123.244 5 123.167 5 123.089 5C123.012 5 122.934 5 122.856 5C122.778 5 122.7 5 122.622 5C122.544 5 122.465 5 122.387 5C122.309 5 122.23 5 122.152 5C122.073 5 121.994 5 121.916 5C121.837 5 121.758 5 121.679 5C121.6 5 121.521 5 121.441 5C121.362 5 121.283 5 121.203 5C121.124 5 121.044 5 120.965 5C120.885 5 120.805 5 120.725 5C120.645 5 120.565 5 120.485 5C120.405 5 120.325 5 120.245 5C120.164 5 120.084 5 120.003 5C119.923 5 119.842 5 119.762 5C119.681 5 119.6 5 119.519 5C119.438 5 119.357 5 119.276 5C119.195 5 119.113 5 119.032 5C118.951 5 118.869 5 118.788 5C118.706 5 118.624 5 118.543 5C118.461 5 118.379 5 118.297 5C118.215 5 118.133 5 118.051 5C117.968 5 117.886 5 117.804 5C117.721 5 117.639 5 117.556 5C117.473 5 117.391 5 117.308 5C117.225 5 117.142 5 117.059 5C116.976 5 116.893 5 116.81 5C116.727 5 116.643 5 116.56 5C116.477 5 116.393 5 116.309 5C116.226 5 116.142 5 116.058 5C115.974 5 115.891 5 115.807 5C115.723 5 115.638 5 115.554 5C115.47 5 115.386 5 115.301 5C115.217 5 115.132 5 115.048 5C114.963 5 114.879 5 114.794 5C114.709 5 114.624 5 114.539 5C114.454 5 114.369 5 114.284 5C114.199 5 114.114 5 114.028 5C113.943 5 113.857 5 113.772 5C113.686 5 113.601 5 113.515 5C113.429 5 113.343 5 113.257 5C113.171 5 113.085 5 112.999 5C112.913 5 112.827 5 112.741 5C112.654 5 112.568 5 112.482 5C112.395 5 112.309 5 112.222 5C112.135 5 112.048 5 111.962 5C111.875 5 111.788 5 111.701 5C111.614 5 111.527 5 111.439 5C111.352 5 111.265 5 111.178 5C111.09 5 111.003 5 110.915 5C110.828 5 110.74 5 110.652 5C110.564 5 110.477 5 110.389 5C110.301 5 110.213 5 110.125 5C110.037 5 109.948 5 109.86 5C109.772 5 109.684 5 109.595 5C109.507 5 109.418 5 109.33 5C109.241 5 109.152 5 109.063 5C108.975 5 108.886 5 108.797 5C108.708 5 108.619 5 108.53 5C108.441 5 108.351 5 108.262 5C108.173 5 108.083 5 107.994 5C107.904 5 107.815 5 107.725 5C107.636 5 107.546 5 107.456 5C107.366 5 107.276 5 107.187 5C107.097 5 107.007 5 106.916 5C106.826 5 106.736 5 106.646 5C106.555 5 106.465 5 106.375 5C106.284 5 106.194 5 106.103 5C106.012 5 105.922 5 105.831 5C105.74 5 105.649 5 105.558 5C105.467 5 105.376 5 105.285 5C105.194 5 105.103 5 105.012 5C104.921 5 104.829 5 104.738 5C104.646 5 104.555 5 104.463 5C104.372 5 104.28 5 104.189 5C104.097 5 104.005 5 103.913 5C103.821 5 103.729 5 103.637 5C103.545 5 103.453 5 103.361 5C103.269 5 103.177 5 103.084 5C102.992 5 102.9 5 102.807 5C102.715 5 102.622 5 102.529 5C102.437 5 102.344 5 102.251 5C102.159 5 102.066 5 101.973 5C101.88 5 101.787 5 101.694 5C101.601 5 101.508 5 101.414 5C101.321 5 101.228 5 101.135 5C101.041 5 100.948 5 100.854 5C100.761 5 100.667 5 100.574 5C100.48 5 100.386 5 100.293 5C100.199 5 100.105 5 100.011 5C99.9171 5 99.8231 5 99.729 5C99.635 5 99.5408 5 99.4466 5C99.3524 5 99.2582 5 99.1639 5C99.0695 5 98.9751 5 98.8807 5C98.7862 5 98.6916 5 98.597 5C98.5024 5 98.4078 5 98.313 5C98.2183 5 98.1235 5 98.0286 5C97.9337 5 97.8388 5 97.7438 5C97.6488 5 97.5537 5 97.4586 5C97.3634 5 97.2682 5 97.173 5C97.0777 5 96.9824 5 96.887 5C96.7916 5 96.6961 5 96.6006 5C96.5051 5 96.4095 5 96.3138 5C96.2182 5 96.1225 5 96.0267 5C95.9309 5 95.8351 5 95.7392 5C95.6432 5 95.5473 5 95.4512 5C95.3552 5 95.2591 5 95.163 5C95.0668 5 94.9706 5 94.8743 5C94.778 5 94.6817 5 94.5853 5C94.4889 5 94.3924 5 94.2959 5C94.1994 5 94.1028 5 94.0062 5C93.9096 5 93.8129 5 93.7161 5C93.6193 5 93.5225 5 93.4256 5C93.3288 5 93.2318 5 93.1348 5C93.0378 5 92.9408 5 92.8437 5C92.7466 5 92.6494 5 92.5522 5C92.4549 5 92.3577 5 92.2603 5C92.163 5 92.0656 5 91.9681 5C91.8707 5 91.7732 5 91.6756 5C91.578 5 91.4804 5 91.3827 5C91.2851 5 91.1873 5 91.0895 5C90.9918 5 90.8939 5 90.796 5C90.6981 5 90.6002 5 90.5022 5C90.4042 5 90.3061 5 90.208 5C90.1099 5 90.0117 5 89.9135 5C89.8153 5 89.717 5 89.6187 5C89.5203 5 89.422 5 89.3235 5C89.2251 5 89.1266 5 89.0281 5C88.9295 5 88.831 5 88.7323 5C88.6337 5 88.535 5 88.4363 5C88.3375 5 88.2387 5 88.1399 5C88.0411 5 87.9422 5 87.8432 5C87.7443 5 87.6453 5 87.5463 5C87.4472 5 87.3481 5 87.249 5C87.1499 5 87.0507 5 86.9514 5C86.8522 5 86.7529 5 86.6536 5C86.5543 5 86.4549 5 86.3555 5C86.2561 5 86.1566 5 86.0571 5C85.9575 5 85.858 5 85.7584 5C85.6588 5 85.5591 5 85.4594 5C85.3597 5 85.2599 5 85.1601 5C85.0603 5 84.9605 5 84.8606 5C84.7607 5 84.6608 5 84.5608 5C84.4609 5 84.3608 5 84.2608 5C84.1607 5 84.0606 5 83.9605 5C83.8603 5 83.7601 5 83.6599 5C83.5596 5 83.4594 5 83.359 5C83.2587 5 83.1583 5 83.0579 5C82.9575 5 82.8571 5 82.7566 5C82.6561 5 82.5556 5 82.455 5C82.3544 5 82.2538 5 82.1532 5C82.0525 5 81.9518 5 81.8511 5C81.7503 5 81.6496 5 81.5488 5C81.4479 5 81.3471 5 81.2462 5C81.1453 5 81.0444 5 80.9434 5C80.8424 5 80.7414 5 80.6404 5C80.5393 5 80.4382 5 80.3371 5C80.236 5 80.1348 5 80.0336 5C79.9324 5 79.8312 5 79.7299 5C79.6286 5 79.5273 5 79.426 5C79.3246 5 79.2232 5 79.1218 5C79.0204 5 78.9189 5 78.8175 5C78.716 5 78.6144 5 78.5129 5C78.4113 5 78.3097 5 78.2081 5C78.1065 5 78.0048 5 77.9031 5C77.8014 5 77.6997 5 77.5979 5C77.4962 5 77.3944 5 77.2925 5C77.1907 5 77.0888 5 76.9869 5C76.885 5 76.7831 5 76.6811 5C76.5792 5 76.4772 5 76.3752 5C76.2731 5 76.1711 5 76.069 5C75.9669 5 75.8648 5 75.7626 5C75.6605 5 75.5583 5 75.4561 5C75.3539 5 75.2517 5 75.1494 5C75.0471 5 74.9448 5 74.8425 5C74.7402 5 74.6378 5 74.5354 5C74.4331 5 74.3306 5 74.2282 5C74.1258 5 74.0233 5 73.9208 5C73.8183 5 73.7158 5 73.6132 5C73.5107 5 73.4081 5 73.3055 5C73.2029 5 73.1003 5 72.9976 5C72.8949 5 72.7922 5 72.6895 5C72.5868 5 72.4841 5 72.3813 5C72.2786 5 72.1758 5 72.073 5C71.9702 5 71.8673 5 71.7645 5C71.6616 5 71.5587 5 71.4558 5C71.3529 5 71.25 5 71.147 5C71.0441 5 70.9411 5 70.8381 5C70.7351 5 70.632 5 70.529 5C70.4259 5 70.3229 5 70.2198 5C70.1167 5 70.0136 5 69.9104 5C69.8073 5 69.7042 5 69.601 5C69.4978 5 69.3946 5 69.2914 5C69.1882 5 69.0849 5 68.9817 5C68.8784 5 68.7751 5 68.6718 5C68.5685 5 68.4652 5 68.3619 5C68.2585 5 68.1552 5 68.0518 5C67.9484 5 67.8451 5 67.7416 5C67.6382 5 67.5348 5 67.4314 5C67.3279 5 67.2244 5 67.121 5C67.0175 5 66.914 5 66.8105 5C66.707 5 66.6034 5 66.4999 5C66.3963 5 66.2928 5 66.1892 5C66.0856 5 65.982 5 65.8784 5C65.7748 5 65.6712 5 65.5675 5C65.4639 5 65.3602 5 65.2566 5C65.1529 5 65.0492 5 64.9455 5C64.8418 5 64.7381 5 64.6344 5C64.5307 5 64.4269 5 64.3232 5C64.2194 5 64.1157 5 64.0119 5C63.9081 5 63.8043 5 63.7005 5C63.5967 5 63.4929 5 63.3891 5C63.2853 5 63.1814 5 63.0776 5C62.9737 5 62.8699 5 62.766 5C62.6622 5 62.5583 5 62.4544 5C62.3505 5 62.2466 5 62.1427 5C62.0388 5 61.9349 5 61.831 5C61.727 5 61.6231 5 61.5192 5C61.4152 5 61.3113 5 61.2073 5C61.1034 5 60.9994 5 60.8954 5C60.7914 5 60.6875 5 60.5835 5C60.4795 5 60.3755 5 60.2715 5C60.1675 5 60.0635 5 59.9595 5C59.8555 5 59.7514 5 59.6474 5C59.5434 5 59.4394 5 59.3353 5C59.2313 5 59.1272 5 59.0232 5C58.9192 5 58.8151 5 58.7111 5C58.607 5 58.5029 5 58.3989 5C58.2948 5 58.1907 5 58.0867 5C57.9826 5 57.8785 5 57.7745 5C57.6704 5 57.5663 5 57.4622 5C57.3581 5 57.2541 5 57.15 5C57.0459 5 56.9418 5 56.8377 5C56.7336 5 56.6296 5 56.5255 5C56.4214 5 56.3173 5 56.2132 5C56.1091 5 56.005 5 55.9009 5C55.7968 5 55.6927 5 55.5887 5C55.4846 5 55.3805 5 55.2764 5C55.1723 5 55.0682 5 54.9641 5C54.86 5 54.756 5 54.6519 5C54.5478 5 54.4437 5 54.3396 5C54.2356 5 54.1315 5 54.0274 5C53.9234 5 53.8193 5 53.7152 5C53.6112 5 53.5071 5 53.403 5C53.299 5 53.1949 5 53.0909 5C52.9868 5 52.8828 5 52.7787 5C52.6747 5 52.5707 5 52.4666 5C52.3626 5 52.2586 5 52.1546 5C52.0506 5 51.9466 5 51.8425 5C51.7385 5 51.6345 5 51.5306 5C51.4266 5 51.3226 5 51.2186 5C51.1146 5 51.0107 5 50.9067 5C50.8027 5 50.6988 5 50.5948 5C50.4909 5 50.3869 5 50.283 5C50.1791 5 50.0752 5 49.9713 5C49.8674 5 49.7635 5 49.6596 5C49.5557 5 49.4518 5 49.3479 5C49.244 5 49.1402 5 49.0363 5C48.9325 5 48.8286 5 48.7248 5C48.621 5 48.5172 5 48.4134 5C48.3096 5 48.2058 5 48.102 5C47.9982 5 47.8944 5 47.7907 5C47.6869 5 47.5832 5 47.4794 5C47.3757 5 47.272 5 47.1683 5C47.0646 5 46.9609 5 46.8572 5C46.7535 5 46.6499 5 46.5462 5C46.4426 5 46.3389 5 46.2353 5C46.1317 5 46.0281 5 45.9245 5C45.8209 5 45.7174 5 45.6138 5C45.5102 5 45.4067 5 45.3032 5C45.1997 5 45.0961 5 44.9927 5C44.8892 5 44.7857 5 44.6822 5C44.5788 5 44.4753 5 44.3719 5C44.2685 5 44.1651 5 44.0617 5C43.9583 5 43.855 5 43.7516 5C43.6483 5 43.5449 5 43.4416 5C43.3383 5 43.235 5 43.1318 5C43.0285 5 42.9252 5 42.822 5C42.7188 5 42.6156 5 42.5124 5C42.4092 5 42.306 5 42.2029 5C42.0997 5 41.9966 5 41.8935 5C41.7904 5 41.6873 5 41.5843 5C41.4812 5 41.3782 5 41.2752 5C41.1721 5 41.0691 5 40.9662 5C40.8632 5 40.7603 5 40.6573 5C40.5544 5 40.4515 5 40.3487 5C40.2458 5 40.1429 5 40.0401 5C39.9373 5 39.8345 5 39.7317 5C39.6289 5 39.5262 5 39.4235 5C39.3207 5 39.218 5 39.1154 5C39.0127 5 38.91 5 38.8074 5C38.7048 5 38.6022 5 38.4996 5C38.3971 5 38.2945 5 38.192 5C38.0895 5 37.987 5 37.8846 5C37.7821 5 37.6797 5 37.5773 5C37.4749 5 37.3725 5 37.2702 5C37.1678 5 37.0655 5 36.9632 5C36.8609 5 36.7587 5 36.6565 5C36.5542 5 36.452 5 36.3499 5C36.2477 5 36.1456 5 36.0435 5C35.9414 5 35.8393 5 35.7373 5C35.6352 5 35.5332 5 35.4312 5C35.3292 5 35.2273 5 35.1254 5C35.0235 5 34.9216 5 34.8197 5C34.7179 5 34.6161 5 34.5143 5C34.4125 5 34.3108 5 34.209 5C34.1073 5 34.0056 5 33.904 5C33.8024 5 33.7007 5 33.5992 5C33.4976 5 33.396 5 33.2945 5C33.193 5 33.0915 5 32.9901 5C32.8887 5 32.7873 5 32.6859 5C32.5845 5 32.4832 5 32.3819 5C32.2806 5 32.1794 5 32.0781 5C31.9769 5 31.8757 5 31.7746 5C31.6734 5 31.5723 5 31.4713 5C31.3702 5 31.2692 5 31.1682 5C31.0672 5 30.9662 5 30.8653 5C30.7644 5 30.6635 5 30.5627 5C30.4618 5 30.361 5 30.2603 5C30.1595 5 30.0588 5 29.9581 5C29.8575 5 29.7568 5 29.6562 5C29.5556 5 29.4551 5 29.3546 5C29.2541 5 29.1536 5 29.0532 5C28.9527 5 28.8523 5 28.752 5C28.6516 5 28.5513 5 28.4511 5C28.3508 5 28.2506 5 28.1504 5C28.0503 5 27.9501 5 27.85 5C27.75 5 27.6499 5 27.5499 5C27.4499 5 27.35 5 27.25 5C27.1501 5 27.0503 5 26.9504 5C26.8506 5 26.7509 5 26.6511 5C26.5514 5 26.4517 5 26.3521 5C26.2524 5 26.1529 5 26.0533 5C25.9538 5 25.8543 5 25.7548 5C25.6554 5 25.556 5 25.4566 5C25.3573 5 25.2579 5 25.1587 5C25.0594 5 24.9602 5 24.8611 5C24.7619 5 24.6628 5 24.5637 5C24.4646 5 24.3656 5 24.2667 5C24.1677 5 24.0688 5 23.9699 5C23.871 5 23.7722 5 23.6735 5C23.5747 5 23.476 5 23.3773 5C23.2787 5 23.18 5 23.0815 5C22.9829 5 22.8844 5 22.7859 5C22.6875 5 22.5891 5 22.4907 5C22.3924 5 22.2941 5 22.1958 5C22.0976 5 21.9994 5 21.9012 5C21.8031 5 21.705 5 21.607 5C21.5089 5 21.411 5 21.313 5C21.2151 5 21.1172 5 21.0194 5C20.9216 5 20.8238 5 20.7261 5C20.6284 5 20.5308 5 20.4332 5C20.3356 5 20.238 5 20.1405 5C20.0431 5 19.9456 5 19.8483 5C19.7509 5 19.6536 5 19.5563 5C19.4591 5 19.3619 5 19.2647 5C19.1676 5 19.0705 5 18.9735 5C18.8764 5 18.7795 5 18.6826 5C18.5857 5 18.4888 5 18.392 5C18.2952 5 18.1985 5 18.1018 5C18.0051 5 17.9085 5 17.812 5C17.7154 5 17.6189 5 17.5225 5C17.4261 5 17.3297 5 17.2334 5C17.1371 5 17.0408 5 16.9446 5C16.8484 5 16.7523 5 16.6563 5C16.5602 5 16.4642 5 16.3682 5C16.2723 5 16.1764 5 16.0806 5C15.9848 5 15.8891 5 15.7934 5C15.6977 5 15.6021 5 15.5065 5C15.4109 5 15.3154 5 15.22 5C15.1246 5 15.0292 5 14.9339 5C14.8386 5 14.7434 5 14.6482 5C14.553 5 14.4579 5 14.3629 5C14.2678 5 14.1729 5 14.0779 5C13.983 5 13.8882 5 13.7934 5C13.6986 5 13.6039 5 13.5093 5C13.4146 5 13.3201 5 13.2256 5C13.1311 5 13.0366 5 12.9423 5C12.8479 5 12.7536 5 12.6593 5C12.5651 5 12.471 5 12.3769 5C12.2828 5 12.1887 5 12.0948 5C12.0008 5 11.9069 5 11.8131 5C11.7193 5 11.6256 5 11.5319 5C11.4382 5 11.3446 5 11.2511 5C11.1575 5 11.0641 5 10.9707 5C10.8773 5 10.784 5 10.6907 5C10.5975 5 10.5043 5 10.4112 5C10.3181 5 10.2251 5 10.1321 5C10.0392 5 9.94627 5 9.85346 5C9.76065 5 9.66791 5 9.57525 5C9.48259 5 9.39 5 9.29749 5C9.20497 5 9.11253 5 9.02017 5C8.9278 5 8.83551 5 8.7433 5C8.65109 5 8.55895 5 8.46688 5C8.37482 5 8.28284 5 8.19092 5C8.09901 5 8.00718 5 7.91542 5C7.82367 5 7.73199 5 7.64038 5C7.54878 5 7.45726 5 7.36581 5C7.27436 5 7.18299 5 7.0917 5C7.00041 5 6.9092 5 6.81806 5C6.72693 5 6.63587 5 6.5449 5C6.45392 5 6.36303 5 6.27221 5C6.18139 5 6.09066 5 6 5V7Z" fill="#525B75"/>
</svg>
