<svg width="8" height="34" viewBox="0 0 8 34" fill="none" xmlns="http://www.w3.org/2000/svg">
<path d="M4.5 1C4.5 0.723858 4.27614 0.5 4 0.5C3.72386 0.5 3.5 0.723858 3.5 1H4.5ZM3.64645 33.3536C3.84171 33.5488 4.15829 33.5488 4.35355 33.3536L7.53553 30.1716C7.7308 29.9763 7.7308 29.6597 7.53553 29.4645C7.34027 29.2692 7.02369 29.2692 6.82843 29.4645L4 32.2929L1.17157 29.4645C0.976311 29.2692 0.659728 29.2692 0.464466 29.4645C0.269204 29.6597 0.269204 29.9763 0.464466 30.1716L3.64645 33.3536ZM3.5 1V33H4.5V1H3.5Z" fill="#8A94AD"/>
</svg>
